<?xml version="1.0" encoding="UTF-8"?>
<svg width="100px" height="100px" viewBox="0 0 100 100" version="1.1" xmlns="http://www.w3.org/2000/svg" xmlns:xlink="http://www.w3.org/1999/xlink">
    <title>Cypress</title>
    <g id="DE" stroke="none" stroke-width="1" fill="none" fill-rule="evenodd">
        <g id="Artboard" transform="translate(-330.000000, -210.000000)">
            <g id="Cypress" transform="translate(330.000000, 210.000000)">
                <circle id="Oval" fill="#0E1116" cx="50" cy="50" r="50"></circle>
                <g id="cypress" transform="translate(25.000000, 25.000000)" fill="#FFFFFF" fill-rule="nonzero">
                    <path d="M24.9958417,0 C11.1791765,0 5.55702484e-06,11.1812488 5.55702484e-06,25 C-0.00441447719,31.6317645 2.62808503,37.9931833 7.31745367,42.6825519 C12.0068223,47.3719205 18.3682411,50.00442 25.0000056,50 C38.8187568,50 50.0000056,38.8187457 50.0000056,25 C49.9979222,11.1812488 38.7250068,0 24.9958417,0 Z M13.270843,30.3645818 C14.0875096,31.4541632 15.1791761,31.9104131 16.7229259,31.9104131 C17.4520925,31.9104131 18.1791758,31.8187465 18.8145924,31.5458298 C19.4520923,31.2749965 20.1791755,30.9083299 21.0854254,30.3645818 L23.6333418,33.9999962 C21.5437587,35.7291627 19.1791757,36.5458293 16.4520926,36.5458293 C14.2687595,36.5458293 12.4520931,36.0916626 10.8166766,35.1833294 C9.2290231,34.2467363 7.9611884,32.8525538 7.17917699,31.1833299 C6.36251042,29.4541634 5.90626047,27.4541636 5.90626047,25.0895805 C5.90626047,22.8187475 6.36251042,20.727081 7.17709366,18.9999979 C7.95486781,17.2794045 9.22124593,15.825388 10.8187599,14.8187483 C12.3625098,13.8187485 14.2708429,13.3645818 16.3625093,13.3645818 C17.8187591,13.3645818 19.181259,13.5458318 20.2729255,13.9999984 C21.4976511,14.4740701 22.6342361,15.1501058 23.6354252,15.9999982 L21.0895921,19.4541645 C20.4432806,18.9769781 19.7416657,18.5796529 19.000009,18.2708313 C18.3645924,17.999998 17.5458425,17.9083313 16.8166759,17.9083313 C13.7270929,17.9083313 12.1812598,20.2708311 12.1812598,25.0874972 C12.0916764,27.5458303 12.5458431,29.2708301 13.2729263,30.3624966 L13.270843,30.3624966 L13.270843,30.3645818 Z M38.2708402,35.999996 C37.362507,38.8187457 35.9979251,40.9104121 34.0875073,42.4541619 C32.1791742,44.0020784 29.6333412,44.818745 26.4520915,45.0916651 L25.8166749,40.8208288 C27.906258,40.5458288 29.4520912,40.0916651 30.4520911,39.3624956 C30.814591,39.0916651 31.5437576,38.2729124 31.5437576,38.2729124 L23.9979251,14.0916651 L30.2687578,14.0916651 L34.6333406,32.1812464 L39.2708401,14.0916651 L45.3604227,14.0916651 L38.2708402,35.999996 Z" id="Shape"></path>
                </g>
            </g>
        </g>
    </g>
</svg>