<?xml version="1.0" encoding="UTF-8"?>
<svg width="100px" height="100px" viewBox="0 0 100 100" version="1.1" xmlns="http://www.w3.org/2000/svg" xmlns:xlink="http://www.w3.org/1999/xlink">
    <title>Eslint</title>
    <g id="DE" stroke="none" stroke-width="1" fill="none" fill-rule="evenodd">
        <g id="Artboard" transform="translate(-454.000000, -210.000000)">
            <g id="Eslint" transform="translate(454.000000, 210.000000)">
                <circle id="Oval" fill="#0E1116" cx="50" cy="50" r="50"></circle>
                <g id="eslint-icon" transform="translate(18.000000, 22.000000)" fill="#FFFFFF" fill-rule="nonzero">
                    <path d="M19.3531759,20.45 L31.5081759,13.432 C31.8121504,13.2557828 32.1872014,13.2557828 32.4911759,13.432 L44.6471759,20.45 C44.9511759,20.626 45.1391759,20.95 45.1391759,21.302 L45.1391759,35.34 C45.1391759,35.69 44.9511759,36.016 44.6471759,36.192 L32.4901759,43.2 C32.1862014,43.3762172 31.8111504,43.3762172 31.5071759,43.2 L19.3531759,36.2 C19.0491759,36.024 18.8611759,35.7 18.8611759,35.348 L18.8611759,21.303 C18.8611759,20.953 19.0491759,20.627 19.3531759,20.451" id="Path"></path>
                    <path d="M63.6041759,26.844 L49.0801759,1.578 C48.5531759,0.664 47.5801759,0 46.5241759,0 L17.4771759,0 C16.4221759,0 15.4471759,0.674 14.9201759,1.587 L0.396175889,26.8 C-0.13205863,27.7231072 -0.13205863,28.8568928 0.396175889,29.78 L14.9201759,54.83 C15.4481759,55.744 16.4221759,56.21 17.4771759,56.21 L46.5241759,56.21 C47.5791759,56.21 48.5541759,55.757 49.0811759,54.843 L63.6041759,29.743 C64.1319632,28.8490909 64.1319632,27.7389091 63.6041759,26.845 M51.5781759,38.995 C51.5781759,39.365 51.3541759,39.71 51.0321759,39.895 L32.5321759,50.568 C32.208068,50.7544119 31.8092838,50.7544119 31.4851759,50.568 L12.9721759,39.895 C12.6501759,39.709 12.4251759,39.365 12.4251759,38.995 L12.4251759,17.647 C12.4344185,17.2718566 12.6413186,16.9295586 12.9691759,16.747 L31.4691759,6.074 C31.793029,5.88797126 32.1913228,5.88797126 32.5151759,6.074 L51.0301759,16.746 C51.3521759,16.932 51.5801759,17.276 51.5801759,17.646 L51.5781759,38.995 Z" id="Shape"></path>
                </g>
            </g>
        </g>
    </g>
</svg>