<?xml version="1.0" encoding="UTF-8"?>
<svg width="100px" height="100px" viewBox="0 0 100 100" version="1.1" xmlns="http://www.w3.org/2000/svg" xmlns:xlink="http://www.w3.org/1999/xlink">
    <title>Jest</title>
    <g id="DE" stroke="none" stroke-width="1" fill="none" fill-rule="evenodd">
        <g id="Artboard" transform="translate(-330.000000, -72.000000)">
            <g id="Jest" transform="translate(330.000000, 72.000000)">
                <circle id="Oval" fill="#0E1116" cx="50" cy="50" r="50"></circle>
                <g id="jestjsio-icon" transform="translate(27.000000, 25.000000)" fill="#FFFFFF" fill-rule="nonzero">
                    <path d="M44.082129,24.6199753 C44.082129,21.6094612 42.0121076,19.0762237 39.233592,18.3528879 L45.4577168,0 L14.6128356,0 L20.8510208,18.4114734 C18.1592119,19.1926135 16.175897,21.6828883 16.175897,24.6355981 C16.175897,26.8071677 17.2694932,28.7318971 18.9114498,29.918449 C18.259979,30.8448812 17.507741,31.6994485 16.6539548,32.5094909 C15.0471495,34.0147479 13.2669311,35.1731788 11.3422018,35.9386961 C9.60494607,34.7669859 8.8527081,32.6969645 9.53308118,30.8441 C12.1811463,30.0332766 14.1066568,27.5586246 14.1066568,24.6496586 C14.1066568,21.0743802 11.1976908,18.1794748 7.63647289,18.1794748 C4.06119441,18.1794748 1.15300962,21.0884407 1.15300962,24.662938 C1.15386122,26.3672146 1.83058939,28.0015876 3.03477625,29.2076114 L2.73013159,29.8301801 C1.7615178,31.8275555 0.660110187,34.0858317 0.240637925,36.6260995 C-0.599087738,41.6917933 0.77650007,45.7591901 4.09165888,48.060429 C5.96639524,49.3493103 8.01298244,50 10.2282959,50 C14.0347919,50 17.8990922,48.0893312 21.6329421,46.2364667 C24.2966301,44.9194645 27.0462434,43.5446578 29.752894,42.8775641 C30.7527534,42.6315049 31.7940132,42.486994 32.8930774,42.3276414 C35.1224514,42.0089362 37.4236903,41.6761705 39.4937117,40.474777 C41.9105593,39.0710681 43.5611085,36.7253043 44.0383851,34.0334953 C44.400053,31.9634739 44.0383851,29.879392 43.1119529,28.0554297 C43.7345216,27.0555703 44.0805667,25.8838601 44.0805667,24.6262244 L44.082129,24.6199753 Z M41.2598696,24.6199753 C41.2598696,26.6321923 39.6241621,28.2678998 37.6119451,28.2678998 C35.5997281,28.2678998 33.9640206,26.6321923 33.9640206,24.6199753 C33.9640206,23.9685044 34.1374337,23.3467169 34.4405161,22.8108547 C34.5561248,22.6077583 34.7014169,22.4046618 34.8467089,22.232811 C34.9977578,22.0556815 35.1677588,21.8956345 35.3536689,21.7555344 L35.3692917,21.7399116 C35.4849005,21.6539862 35.6153509,21.5664985 35.7458013,21.4790108 C35.7458013,21.4790108 35.7614241,21.4790108 35.7614241,21.463388 C35.8192284,21.4344858 35.8770328,21.3907419 35.9348372,21.3618397 C35.95046,21.3618397 35.9637394,21.3462169 35.978581,21.3462169 C36.0363854,21.3173148 36.1090314,21.2884126 36.1816775,21.2602915 C36.2543235,21.2321705 36.3261884,21.2024872 36.3847739,21.1743661 C36.4003967,21.1743661 36.4136761,21.1587433 36.4285178,21.1587433 C36.4863221,21.1431205 36.5441265,21.1149995 36.6019309,21.1009389 C36.6175537,21.1009389 36.6456747,21.0853161 36.6597352,21.0853161 L36.8628317,21.0415723 L36.8784545,21.0415723 L37.0956114,20.9978284 C37.1112342,20.9978284 37.1393553,20.9978284 37.1534158,20.9822056 C37.2112202,20.9822056 37.2690246,20.9665828 37.3268289,20.9665828 L37.399475,20.9665828 C37.472121,20.9665828 37.5439859,20.95096 37.6306924,20.95096 L37.8181661,20.95096 C37.87171,20.948692 37.9253145,20.9536845 37.9775187,20.9658017 L38.0064209,20.9658017 C38.1220296,20.9814245 38.2376383,20.9947039 38.3540282,21.0236061 C40.0476709,21.3861856 41.2590812,22.8809306 41.2629942,24.6129451 L41.2598696,24.6199753 Z M18.6513302,2.8949054 L41.4192222,2.8949054 L36.1933946,18.3099252 C35.9762376,18.353669 35.7590806,18.4255339 35.5419237,18.4973988 L30.042697,7.28022622 L24.5278475,18.4255339 C24.3106906,18.3528879 24.0794731,18.3099252 23.8482556,18.2661813 L18.6513302,2.8949054 Z M28.9998749,23.3607774 C28.7249136,22.0000312 28.0312611,20.7845772 27.0470245,19.8870471 L30.0434782,13.8371167 L33.068834,20.0174975 C32.1479809,20.9281507 31.5183218,22.0917694 31.2597134,23.3607774 L28.9998749,23.3607774 Z M21.7485509,21.073599 L21.9516473,21.0298552 L21.9953912,21.0298552 C22.0531955,21.0142324 22.1109999,21.0142324 22.1688043,21.000953 L22.2266086,21.000953 C22.284413,21.000953 22.3281569,20.9853302 22.3859612,20.9853302 L22.9507256,20.9853302 C23.0085299,20.9853302 23.0522738,21.000953 23.0952365,21.000953 C23.1241387,21.000953 23.1389803,21.000953 23.1678825,21.0165758 C23.2256869,21.0321986 23.2694308,21.0321986 23.3272351,21.045478 C23.3428579,21.045478 23.3561373,21.045478 23.3850395,21.0611008 L23.5881359,21.1048446 C23.660782,21.1204674 23.7185863,21.1337468 23.7756096,21.162649 C23.7912324,21.162649 23.8045118,21.1782718 23.8334139,21.1782718 C23.8771578,21.1938946 23.9349622,21.207174 23.9779249,21.2360762 C23.9935477,21.2360762 24.0068271,21.251699 24.0216687,21.251699 C24.0794731,21.2806012 24.1372775,21.2954428 24.1950818,21.324345 L24.2107046,21.324345 C24.2778157,21.3494021 24.341161,21.3835718 24.3989594,21.4258932 C24.4716054,21.4547954 24.5294098,21.4985393 24.586433,21.5274415 C24.6020559,21.5274415 24.6020559,21.5430643 24.6153352,21.5430643 C24.6731396,21.5719664 24.7168835,21.6157103 24.7746878,21.6446125 L24.7903106,21.6602353 C24.9637237,21.7906857 25.1230763,21.9351966 25.2824289,22.0797075 L25.2980517,22.0953303 C25.4425627,22.2546829 25.5870736,22.428096 25.7042446,22.6163508 C26.0925387,23.2100687 26.2988832,23.9043093 26.2979145,24.6137262 C26.2979145,26.6259432 24.6622036,28.2616507 22.6499866,28.2616507 C20.6377696,28.2616507 19.0020621,26.6259432 19.0020621,24.6137262 C18.9864393,22.9202143 20.1597118,21.4876033 21.7516754,21.0829727 L21.7485509,21.073599 Z M7.50602248,20.9720508 C9.51823951,20.9720508 11.153947,22.6077583 11.153947,24.6199753 C11.153947,26.6321923 9.51823951,28.2678998 7.50602248,28.2678998 C5.49380545,28.2678998 3.85809797,26.6321923 3.85809797,24.6199753 C3.85809797,22.6077583 5.49380545,20.9720508 7.50602248,20.9720508 L7.50602248,20.9720508 Z M41.173163,33.5210673 C40.8544579,35.3739318 39.712431,36.9947976 38.0329796,37.9641925 C36.4550765,38.8757831 34.5155055,39.1655861 32.4751674,39.4561702 C31.3604804,39.6155228 30.1879891,39.7889359 29.0592416,40.0638973 C26.0487274,40.8020747 23.153822,42.2495274 20.3456232,43.6391757 C16.7562842,45.4201753 13.3700416,47.0980643 10.2282959,47.0980643 C8.59258843,47.0980643 7.13107521,46.6348482 5.74142688,45.6654533 C2.55749962,43.4657626 2.71607107,39.3405615 3.09336176,37.0822853 C3.44096913,34.9693012 4.41036406,32.9859863 5.33679628,31.0909403 C5.39460065,30.9753316 5.4383445,30.8737834 5.49614887,30.7581746 C5.81485405,30.8737834 6.14761976,30.9612711 6.49600826,31.0190754 C5.9460856,34.087394 7.50914704,37.2572607 10.5485634,38.8203221 L11.098486,39.109344 L11.6921526,38.892187 C14.2253901,37.9938759 16.5695917,36.5331438 18.6396131,34.5787311 C19.783236,33.5123665 20.7940428,32.3119351 21.6501272,31.0034526 C21.9828929,31.061257 22.3156586,31.0760987 22.6499866,31.0760987 C25.6605008,31.0760987 28.1937383,29.0060773 28.9170741,26.2275617 L31.3487633,26.2275617 C32.0720991,29.0209189 34.6061178,31.0760987 37.6158508,31.0760987 C38.7671677,31.076366 39.8972736,30.7663154 40.8872657,30.1785686 C41.2637753,31.2721649 41.379384,32.393101 41.1762876,33.5218485 L41.173163,33.5210673 Z" id="Shape"></path>
                </g>
            </g>
        </g>
    </g>
</svg>