<?xml version="1.0" encoding="UTF-8"?>
<svg width="100px" height="100px" viewBox="0 0 100 100" version="1.1" xmlns="http://www.w3.org/2000/svg" xmlns:xlink="http://www.w3.org/1999/xlink">
    <title>Laravel</title>
    <g id="DE" stroke="none" stroke-width="1" fill="none" fill-rule="evenodd">
        <g id="Artboard" transform="translate(-330.000000, -431.000000)">
            <g id="Laravel" transform="translate(330.000000, 431.000000)">
                <circle id="Oval" fill="#0E1116" cx="50" cy="50" r="50"></circle>
                <g id="laravel-icon-(1)" transform="translate(20.000000, 30.000000)" fill="#FFFFFF" fill-rule="nonzero">
                    <path d="M37.2691329,40.8308129 C36.9438353,40.8314393 36.6422037,40.660859 36.4750968,40.3817636 L29.4862671,28.7243394 L16.4151399,32.277346 C16.0058072,32.3758353 15.581681,32.1849785 15.3839242,31.813299 L0.109745394,3.1042551 C-0.0334879484,2.83733189 -0.0366931391,2.51713162 0.101168259,2.24739466 C0.239029657,1.97765771 0.500422762,1.79269248 0.800659884,1.75242512 L13.7686655,0.00873319092 C14.1348319,-0.0419040548 14.4959122,0.130706333 14.6864474,0.44746858 L30.3421761,26.5747235 L48.5346952,21.6277007 L42.4692722,13.0592361 C42.2907705,12.8121668 42.2456915,12.4929265 42.3488021,12.2060916 C42.4519127,11.9192567 42.6899283,11.7017824 42.98488,11.6249088 L51.4970965,9.61310083 C51.8439523,9.53044762 52.2074009,9.65488133 52.4308154,9.93277769 L59.7965076,19.1199717 C59.9918046,19.3631124 60.0511806,19.6884031 59.9543779,19.9848615 C59.8575752,20.2813198 59.617674,20.5088873 59.3165236,20.5899228 L51.5795938,22.6992275 L58.3518682,32.2426597 C58.5206007,32.4794948 58.5679139,32.781976 58.4795612,33.0590235 C58.3912085,33.336071 58.1775131,33.5553145 57.9028207,33.6507378 L37.5644355,40.7642509 C37.470085,40.799224 37.3706524,40.8185405 37.2700703,40.8214365 L37.2691329,40.8308129 Z M31.3368304,28.2190437 L37.671307,38.7824419 L56.1319422,32.3195321 L49.6840319,23.2307723 L31.3368304,28.2190437 Z M2.36248287,3.39299548 L16.6560693,30.2983494 L28.5197367,27.0800191 L13.4114899,1.92398191 L2.36248287,3.39299548 Z M44.7829451,13.1107968 L50.4565062,21.1111554 L57.5128337,19.1921568 L51.3742881,11.5480364 L44.7829451,13.1107968 Z" id="Shape"></path>
                </g>
            </g>
        </g>
    </g>
</svg>