<?xml version="1.0" encoding="UTF-8"?>
<svg width="100px" height="100px" viewBox="0 0 100 100" version="1.1" xmlns="http://www.w3.org/2000/svg" xmlns:xlink="http://www.w3.org/1999/xlink">
    <title>Mongodb</title>
    <g id="DE" stroke="none" stroke-width="1" fill="none" fill-rule="evenodd">
        <g id="Artboard" transform="translate(-203.000000, -563.000000)">
            <g id="Mongodb" transform="translate(203.000000, 563.000000)">
                <circle id="Oval" fill="#0E1116" cx="50" cy="50" r="50"></circle>
                <g id="mongodb-icon" transform="translate(39.000000, 25.000000)" fill-rule="nonzero">
                    <path d="M11.0727259,0.136556946 L12.4070007,2.64261876 C12.7069782,3.10508403 13.0319538,3.51442829 13.4147375,3.89564966 C14.5318411,5.01275327 15.592699,6.1829779 16.5457524,7.4360088 C18.8065201,10.4045359 20.3314056,13.7011633 21.4203863,17.2665206 C22.0734623,19.444482 22.4281232,21.6786893 22.4546837,23.9378946 C22.5640504,30.6920749 20.2485993,36.4916394 15.5801999,41.3115899 C14.8177571,42.0740327 14.0021934,42.7802297 13.1272591,43.4083075 C12.6647938,43.4083075 12.4460602,43.0536466 12.2554496,42.7271087 C11.9007887,42.1287161 11.6836175,41.4459549 11.5742507,40.7663184 C11.4102005,39.9491923 11.3023961,39.1320661 11.3555171,38.2883795 L11.3555171,37.9071581 C11.31802,37.8259142 10.9102381,0.328730015 11.0727259,0.136556946 Z" id="Path" fill="#FFFFFF"></path>
                    <path d="M11.0727259,0.0537506642 C11.0180425,-0.055616123 10.9633591,0.0271901587 10.9086757,0.0803111697 C10.9352362,0.627145106 10.7446255,1.1146085 10.4462104,1.58019854 C10.1181101,2.04266381 9.68376768,2.39732468 9.24786291,2.77854605 C6.82616977,4.8752636 4.92006291,7.40788591 3.39361503,10.2404857 C1.36251756,14.0526994 0.315721164,18.1383301 0.0188684562,22.4395696 C-0.117058836,23.9910156 0.509456616,29.4656045 0.998482393,31.0451734 C2.3327572,35.2386085 4.72945222,38.7524071 7.83390659,41.8021781 C8.59634934,42.536498 9.41191309,43.2176968 10.2555997,43.8723352 C10.5008938,43.8723352 10.5274543,43.6536016 10.5837001,43.4911138 C10.6912427,43.1434237 10.7732258,42.7883374 10.8289942,42.4286936 L11.3758281,38.3446252 L11.0727259,0.0537506642 Z" id="Path" fill="#F5F5F5"></path>
                    <path d="M12.4070007,45.0675579 C12.4616841,44.4426048 12.7616615,43.9238938 13.0881995,43.4067451 C12.7600992,43.2708178 12.5163675,43.0005256 12.3257568,42.6989858 C12.1617066,42.4271312 12.0257793,42.1005932 11.9195373,41.8006157 C11.5383159,40.6569516 11.457072,39.4570417 11.3477052,38.2883795 L11.3477052,37.5806201 C11.2117779,37.6899869 11.183655,38.6149175 11.183655,38.7524071 C11.1041512,39.9875895 10.9402391,41.215886 10.6930669,42.4286936 C10.611823,42.9192817 10.5571396,43.4083075 10.2555997,43.8442123 C10.2555997,43.8988957 10.2555997,43.9535791 10.2821602,44.0348229 C10.7727484,45.4784645 10.9071133,46.9486666 10.9899196,48.4469916 L10.9899196,48.9938256 C10.9899196,49.6469015 10.9633591,49.5094118 11.5055059,49.7281454 C11.7242395,49.8093893 11.9679712,49.8375122 12.1867047,50 C12.3507549,50 12.3773154,49.8640727 12.3773154,49.7547059 L12.2960715,48.8563359 L12.2960715,46.3502741 C12.269511,45.9128069 12.3507549,45.4784645 12.4054383,45.0691203 L12.4070007,45.0675579 Z" id="Path" fill="#FAFAFA"></path>
                </g>
            </g>
        </g>
    </g>
</svg>