<?xml version="1.0" encoding="UTF-8"?>
<svg width="100px" height="100px" viewBox="0 0 100 100" version="1.1" xmlns="http://www.w3.org/2000/svg" xmlns:xlink="http://www.w3.org/1999/xlink">
    <title>Mysql</title>
    <g id="DE" stroke="none" stroke-width="1" fill="none" fill-rule="evenodd">
        <g id="Artboard" transform="translate(-79.000000, -563.000000)">
            <g id="Mysql" transform="translate(79.000000, 563.000000)">
                <circle id="Oval" fill="#0E1116" cx="50" cy="50" r="50"></circle>
                <g id="mysql-icon" transform="translate(24.000000, 25.000000)" fill="#FFFFFF">
                    <path d="M47.1937803,38.6730485 C44.4066751,38.5954188 42.2444814,38.8810962 40.4322381,39.64342 C39.910437,39.8530202 39.0730556,39.8530202 39.0043153,40.5097676 C39.2831821,40.785353 39.3167711,41.2363817 39.5612677,41.6183199 C39.9791772,42.3115532 40.7118859,43.2454387 41.373511,43.7298481 L43.6036638,45.3235861 C44.9628463,46.154224 46.4962229,46.6394097 47.8202541,47.4708239 C48.5873329,47.9560097 49.3536306,48.5793762 50.1207095,49.0994953 C50.5112792,49.3766334 50.7479644,49.827662 51.2361765,50 L51.2361765,49.8951999 C50.992461,49.584681 50.9221585,49.1344287 50.6792241,48.7866476 L49.6324974,47.7828954 C48.6224842,46.4321384 47.3671933,45.2537193 46.0080108,44.2849005 C44.8925438,43.5225767 42.4538267,42.4838912 42.0007659,41.2030009 L41.9320256,41.1253712 C42.6975422,41.0477415 43.6036638,40.7783664 44.3363726,40.5703187 C45.5221421,40.2597999 46.6016767,40.328114 47.8202541,40.0168189 L49.4942357,39.5316332 L49.4942357,39.2211143 C48.8669808,38.5977477 48.41392,37.7663335 47.752295,37.1779003 C45.9752029,35.654029 44.0223545,34.1643148 42.0007659,32.9175816 C40.9204502,32.2251246 39.5261164,31.7740959 38.3762793,31.186439 C37.9568074,30.9783914 37.2608123,30.8743676 37.0170968,30.528139 C36.3882796,29.7673678 36.0406726,28.7620631 35.5876118,27.8607821 L32.730204,21.8343874 C32.1029491,20.4836304 31.7186285,19.1328734 30.953112,17.8861402 C27.3629955,11.9979265 23.458861,8.43084116 17.4643976,4.93206999 C16.1755176,4.20467958 14.6421411,3.89183183 13.0119032,3.51144624 L10.398211,3.37171275 C9.83969632,3.12950805 9.28274396,2.47120808 8.79453186,2.15913663 C6.80809448,0.912403439 1.68460145,-1.78911058 0.219965155,1.77098807 C-0.721307769,4.02224975 1.61429891,6.23857806 2.40715535,7.38206374 C3.00082126,8.1785446 3.76633783,9.07904927 4.18580967,9.97955394 C4.42015147,10.5679872 4.49826541,11.1921301 4.74276203,11.8154967 C5.29971439,13.3393679 5.82307776,15.0371298 6.55500533,16.4577535 C6.94557501,17.1851439 7.35567317,17.948244 7.84388527,18.6057677 C8.12275202,18.9939162 8.61096412,19.1600438 8.71485565,19.7834104 C8.22664355,20.4766438 8.19305456,21.514553 7.91418781,22.3816769 C6.65889687,26.2957671 7.14710896,31.144519 8.924201,34.0261339 C9.48271564,34.8917052 10.7989355,36.7975147 12.58462,36.069348 C14.1531478,35.4459814 13.8031974,33.4718578 14.2562582,31.7399389 C14.3617121,31.3246199 14.2914095,31.0474818 14.4999737,30.7695674 L14.4999737,30.8471972 L15.9294587,33.7218254 C17.0097745,35.418811 18.8923203,37.1856632 20.460067,38.3640823 C21.2958861,38.9874489 21.9582923,40.0618441 23.0034567,40.4422297 L23.0034567,40.3374296 L22.9347165,40.3374296 C22.7253711,40.0269107 22.4113531,39.8871773 22.1324864,39.6449726 C21.5052315,39.021606 20.8084552,38.2592822 20.3202431,37.5668251 C18.857169,35.6276349 17.5682891,33.4796207 16.4176708,31.2632924 C15.8591562,30.1896735 15.3709441,29.0120307 14.9194456,27.9384118 C14.7085379,27.5223165 14.7085379,26.8981736 14.3609309,26.6916786 C13.8375675,27.4524498 13.072051,28.1123024 12.6869493,29.0469641 C12.0245431,30.535902 11.9558028,32.3718447 11.7120874,34.2768779 C11.5714823,34.3118113 11.6339734,34.2768779 11.5714823,34.3545076 C10.4575776,34.0781458 10.073257,32.9338838 9.65534744,31.965065 C8.61018298,29.5057557 8.43520776,25.5575085 9.34132941,22.7170373 C9.58504489,21.9896469 10.6317716,19.7034518 10.2138621,19.0109948 C10.0029544,18.3526948 9.30774042,17.9723092 8.92341986,17.4521901 C8.47035903,16.7938902 7.98370921,15.9632522 7.66969119,15.2358618 C6.83387208,13.295119 6.41596253,11.1486574 5.50905973,9.20869089 C5.0895879,8.30818622 4.35844146,7.37274817 3.76555669,6.54211024 C3.10315052,5.6066722 2.37278522,4.94837223 1.84942185,3.84059622 C1.67522778,3.45244766 1.4315123,2.83606773 1.71037905,2.41997247 C1.77911931,2.14283439 1.91972439,2.0318239 2.19702886,1.96972013 C2.65008969,1.58157157 3.94053191,2.07374395 4.39359273,2.28023899 C5.68247267,2.80035806 6.7627884,3.28476747 7.84310413,4.01138159 C8.33131623,4.35761011 8.8546796,5.01591008 9.4819345,5.18980064 L10.2146432,5.18980064 C11.3301102,5.43200534 12.5838389,5.26743035 13.6282222,5.5779492 C15.4756168,6.16793502 17.1480361,7.03273003 18.6478237,7.96894437 C23.2128021,10.8435727 26.9778938,14.9307771 29.5212835,19.8152386 C29.9391931,20.6117195 30.1133872,21.3391099 30.4977077,22.1705241 C31.2304164,23.8682859 32.1365381,25.5994285 32.8669034,27.2630333 C33.5996121,28.8909284 34.2963884,30.5545331 35.3415529,31.9052901 C35.8649162,32.6326806 37.9552452,33.0130662 38.8957369,33.394228 C39.5932944,33.7047469 40.672829,33.9842139 41.3016462,34.3645995 C42.4858534,35.0919899 43.6708418,35.9234041 44.7855277,36.719885 C45.34248,37.1344276 47.0859831,38.0007752 47.1898746,38.6916797 L47.1937803,38.6730485 Z M11.6519396,8.57445613 C11.1704165,8.57022283 10.6903942,8.62841836 10.2240169,8.74757039 L10.2240169,8.82520011 L10.2927571,8.82520011 C10.5716239,9.37947626 11.059836,9.76063815 11.4082241,10.2458239 L12.2104543,11.9086523 L12.2791945,11.8310226 C12.7674066,11.4847941 13.0119032,10.9305179 13.0119032,10.09988 C12.8025579,9.85767529 12.7681878,9.61469429 12.5939937,9.37248959 C12.3846483,9.02626106 11.9315875,8.85237051 11.6519396,8.57600873 L11.6519396,8.57445613 Z" id="Shape"></path>
                </g>
            </g>
        </g>
    </g>
</svg>