<?xml version="1.0" encoding="UTF-8"?>
<svg width="100px" height="100px" viewBox="0 0 100 100" version="1.1" xmlns="http://www.w3.org/2000/svg" xmlns:xlink="http://www.w3.org/1999/xlink">
    <title>Next.js</title>
    <g id="DE" stroke="none" stroke-width="1" fill="none" fill-rule="evenodd">
        <g id="Artboard" transform="translate(-203.000000, -72.000000)">
            <g id="Next.js" transform="translate(203.000000, 72.000000)">
                <circle id="Oval" fill="#0E1116" cx="50" cy="50" r="50"></circle>
                <g id="Nextjs-logo" transform="translate(17.000000, 30.000000)" fill="#FFFFFF" fill-rule="nonzero">
                    <g id="EXT-+-Type-something">
                        <path d="M15.7106242,10.4325647 L28.2686617,10.4325647 L28.2686617,11.4265105 L16.8617776,11.4265105 L16.8617776,18.9072602 L27.5884346,18.9072602 L27.5884346,19.9012059 L16.8617776,19.9012059 L16.8617776,28.1143367 L28.3994746,28.1143367 L28.3994746,29.1082824 L15.7106242,29.1082824 L15.7106242,10.4325647 Z M29.3936527,10.4325647 L30.7279441,10.4325647 L36.6406867,18.6456955 L42.6842424,10.4325647 L50.9044631,0 L37.3994013,19.5088589 L44.3586473,29.1082824 L42.9720306,29.1082824 L36.6406867,20.3720224 L30.2831802,29.1082824 L28.9227263,29.1082824 L35.934297,19.5088589 L29.3936527,10.4325647 Z M44.8557364,11.4265105 L44.8557364,10.4325647 L59.1666667,10.4325647 L59.1666667,11.4265105 L52.5736967,11.4265105 L52.5736967,29.1082824 L51.4225433,29.1082824 L51.4225433,11.4265105 L44.8557364,11.4265105 Z" id="EXT"></path>
                        <polygon id="Type-something" points="0 10.4325647 1.4389418 10.4325647 21.2811072 40 13.0812891 29.1082824 1.2034786 11.845014 1.15115344 29.1082824 0 29.1082824"></polygon>
                    </g>
                    <path d="M58.7651276,27.4504296 C59.0148046,27.4504296 59.1969218,27.2714254 59.1969218,27.0400971 C59.1969218,26.8087686 59.0148046,26.6297645 58.7651276,26.6297645 C58.5183883,26.6297645 58.3333333,26.8087686 58.3333333,27.0400971 C58.3333333,27.2714254 58.5183883,27.4504296 58.7651276,27.4504296 Z M59.9518273,26.3708967 C59.9518273,27.0538666 60.4776175,27.5 61.2442723,27.5 C62.0608625,27.5 62.5543415,27.0400971 62.5543415,26.2414629 L62.5543415,23.4297202 L61.8963694,23.4297202 L61.8963694,26.2387089 C61.8963694,26.6820886 61.6584421,26.918925 61.2383973,26.918925 C60.8624134,26.918925 60.6068617,26.698612 60.5980496,26.3708967 L59.9518273,26.3708967 Z M63.4149924,26.335096 C63.4619907,27.0456048 64.0935259,27.5 65.033486,27.5 C66.0380684,27.5 66.6666667,27.0235737 66.6666667,26.2634942 C66.6666667,25.6658955 66.3083069,25.3354264 65.438844,25.1454065 L64.9718012,25.038004 C64.4195745,24.9168319 64.1963343,24.7543512 64.1963343,24.4706985 C64.1963343,24.11269 64.5429443,23.8786077 65.0628598,23.8786077 C65.5563388,23.8786077 65.8970745,24.1071823 65.9587592,24.4734523 L66.5991069,24.4734523 C66.5609209,23.804252 65.9323227,23.3333333 65.0716719,23.3333333 C64.146399,23.3333333 63.5295498,23.804252 63.5295498,24.5120071 C63.5295498,25.0958361 63.8790978,25.4428288 64.6457527,25.6108174 L65.1921044,25.7347433 C65.7531432,25.8586694 65.9998825,26.0404276 65.9998825,26.3433576 C65.9998825,26.6958583 65.6121492,26.9519719 65.0834216,26.9519719 C64.5165081,26.9519719 64.1228998,26.7123818 64.0670898,26.335096 L63.4149924,26.335096 Z" id=".JS"></path>
                </g>
            </g>
        </g>
    </g>
</svg>