<?xml version="1.0" encoding="UTF-8"?>
<svg width="100px" height="100px" viewBox="0 0 100 100" version="1.1" xmlns="http://www.w3.org/2000/svg" xmlns:xlink="http://www.w3.org/1999/xlink">
    <title>Node.js</title>
    <g id="DE" stroke="none" stroke-width="1" fill="none" fill-rule="evenodd">
        <g id="Artboard" transform="translate(-80.000000, -431.000000)">
            <g id="Node.js" transform="translate(80.000000, 431.000000)">
                <circle id="Oval" fill="#0E1116" cx="50" cy="50" r="50"></circle>
                <g id="Group-7" transform="translate(28.000000, 25.000000)" fill="#FFFFFF">
                    <path d="M20.0514818,49.4858541 L13.9922901,45.8661936 C13.0878178,45.3552583 13.5293784,45.1740918 13.8278406,45.0690611 C15.0348636,44.6461864 15.2792664,44.5484941 16.5676056,43.810986 C16.7016183,43.7343916 16.8796962,43.7637451 17.0182517,43.8458434 L21.6732628,46.6358072 C21.8418008,46.730289 22.0798438,46.730289 22.2352077,46.6358072 L40.383709,36.0602711 C40.5527013,35.9630375 40.66082,35.7667355 40.66082,35.5644712 L40.66082,14.4189028 C40.66082,14.2120519 40.5527013,14.0189606 40.3791662,13.9139299 L22.2383876,3.34756675 C22.0707582,3.2484985 21.8481608,3.2484985 21.6791685,3.34756675 L3.54293271,13.9171404 C3.36667192,14.0189606 3.25491895,14.218473 3.25491895,14.4189028 L3.25491895,35.5644712 C3.25491895,35.7667355 3.36667192,35.958451 3.54111559,36.0543087 L8.51276011,38.9543483 C11.210277,40.3160782 12.8620405,38.7121815 12.8620405,37.1009464 L12.8620405,16.2236879 C12.8620405,15.9283177 13.0969035,15.6957825 13.38946,15.6957825 L15.6903902,15.6957825 C15.9784039,15.6957825 16.2164469,15.9283177 16.2164469,16.2236879 L16.2164469,37.1009464 C16.2164469,40.7357423 14.2557727,42.8203035 10.8427642,42.8203035 C9.79383079,42.8203035 8.96794905,42.8203035 6.6624761,41.6732215 L1.90343481,38.9071075 C0.727757174,38.2209681 0,36.9381259 0,35.5644712 L0,14.4189028 C0,13.045248 0.727757174,11.7624059 1.90343481,11.079477 L20.0514818,0.491557413 C21.1999027,-0.163852471 22.7262847,-0.163852471 23.8656199,0.491557413 L42.0127584,11.079477 C43.1879818,11.7656164 43.9189189,13.045248 43.9189189,14.4189028 L43.9189189,35.5644712 C43.9189189,36.9381259 43.1879818,38.2163816 42.0127584,38.9071075 L23.8656199,49.4858541 C23.2855039,49.8252546 22.6272516,50 21.9549167,50 C21.2916673,50 20.6320522,49.8252546 20.0514818,49.4858541 Z" id="Fill-1"></path>
                    <path d="M27.3096981,35.8108108 C19.2548397,35.8108108 17.5675676,32.1358826 17.5675676,29.0531381 C17.5675676,28.7600232 17.8043939,28.5259892 18.0992748,28.5259892 L20.4790565,28.5259892 C20.7449102,28.5259892 20.9665317,28.7160559 21.0079993,28.9739054 C21.3673855,31.3820277 22.4386328,32.5975386 27.3096981,32.5975386 C31.187383,32.5975386 32.8382558,31.7255217 32.8382558,29.6805872 C32.8382558,28.5017156 32.3701322,27.6264928 26.3439629,27.039805 C21.3074878,26.5447156 18.1928074,25.4386648 18.1928074,21.4339823 C18.1928074,17.7421083 21.3226926,15.5405405 26.5715741,15.5405405 C32.4682723,15.5405405 35.3862118,17.5749412 35.7557345,21.9396055 C35.7695571,22.0902849 35.7161099,22.2345524 35.6152053,22.3467604 C35.5143007,22.4516406 35.3737715,22.5157595 35.2254095,22.5157595 L32.8364128,22.5157595 C32.5889892,22.5157595 32.3701322,22.3408065 32.3199103,22.1021927 C31.7467354,19.5681227 30.352962,18.7583927 26.5715741,18.7583927 C22.3377282,18.7583927 21.8456456,20.2244253 21.8456456,21.3231482 C21.8456456,22.6540731 22.4261925,23.0410764 28.1427369,23.7930993 C33.7993835,24.5364204 36.4864865,25.5888862 36.4864865,29.5408996 C36.4864865,33.5272624 33.1423518,35.8108108 27.3096981,35.8108108" id="Fill-3"></path>
                </g>
            </g>
        </g>
    </g>
</svg>