<?xml version="1.0" encoding="UTF-8"?>
<svg width="100px" height="100px" viewBox="0 0 100 100" version="1.1" xmlns="http://www.w3.org/2000/svg" xmlns:xlink="http://www.w3.org/1999/xlink">
    <title>React</title>
    <g id="DE" stroke="none" stroke-width="1" fill="none" fill-rule="evenodd">
        <g id="Artboard" transform="translate(-79.000000, -72.000000)">
            <g id="React" transform="translate(79.000000, 72.000000)">
                <circle id="Oval" fill="#0E1116" cx="50" cy="50" r="50"></circle>
                <g id="reactjs-icon" transform="translate(22.000000, 25.000000)">
                    <circle id="Oval" fill="#FFFFFF" fill-rule="nonzero" cx="28.2584437" cy="24.9504482" r="5.27182558"></circle>
                    <g id="Group" stroke="#FFFFFF" stroke-width="2.73408">
                        <path d="M28.2585488,14.2317245 C35.3366895,14.2317245 41.912101,15.2473761 46.869931,16.9541752 C52.8434127,19.010699 56.5161518,22.1278509 56.5161518,24.9504482 C56.5161518,27.891792 52.6237839,31.2033522 46.2090481,33.328707 C41.3593511,34.9354647 34.9775071,35.7742573 28.2585488,35.7742573 C21.3697722,35.7742573 14.8464831,34.9869566 9.94214161,33.3110526 C3.73726164,31.1902165 1.43377562e-15,27.8357814 1.43377562e-15,24.9504482 C1.43377562e-15,22.1507596 3.506704,19.0576722 9.3962223,17.004301 C14.3725474,15.269339 21.110316,14.2317245 28.257603,14.2317245 L28.2585488,14.2317245 Z" id="Path"></path>
                        <path d="M18.9275846,19.6219815 C22.4637125,13.4904512 26.6282519,8.30174829 30.5836711,4.8595668 C35.3492997,0.712261436 39.8844758,-0.911940452 42.3295007,0.497992049 C44.8776145,1.96740296 45.8017366,6.99374875 44.4382519,13.6122453 C43.4084138,18.6162079 40.9458396,24.5634182 37.5891977,30.3838953 C34.1476467,36.3514921 30.2069395,41.6091312 26.3054292,45.0193666 C21.3685112,49.335019 16.5955266,50.8968001 14.0960674,49.455342 C11.6706934,48.0577045 10.7432086,43.4738738 11.9067155,37.3460215 C12.8897906,32.1684577 15.3568835,25.8134105 18.9264286,19.6218764 L18.9275846,19.6219815 Z" id="Path"></path>
                        <path d="M18.9364118,30.399553 C15.3903007,24.2749584 12.9759607,18.0743869 11.9681905,12.9285589 C10.7550832,6.72851288 11.6127913,1.98810481 14.0556094,0.57407397 C16.6012012,-0.899645446 21.417376,0.80988589 26.4704135,5.2966175 C30.2909028,8.68877828 34.2139557,13.7914162 37.5803705,19.6064288 C41.0317995,25.568246 43.6185848,31.6082467 44.6248838,36.6914438 C45.8982052,43.1240441 44.8676314,48.0389992 42.3704841,49.4845557 C39.9475271,50.8872373 35.5136535,49.4021687 30.7858557,45.3336775 C26.7912396,41.8963299 22.5175163,36.5849922 18.9364118,30.3994479 L18.9364118,30.399553 Z" id="Path"></path>
                    </g>
                </g>
            </g>
        </g>
    </g>
</svg>