<?xml version="1.0" encoding="UTF-8"?>
<svg width="100px" height="100px" viewBox="0 0 100 100" version="1.1" xmlns="http://www.w3.org/2000/svg" xmlns:xlink="http://www.w3.org/1999/xlink">
    <title>SASS</title>
    <g id="DE" stroke="none" stroke-width="1" fill="none" fill-rule="evenodd">
        <g id="Artboard" transform="translate(-203.000000, -210.000000)">
            <g id="SASS" transform="translate(203.000000, 210.000000)">
                <circle id="Oval" fill="#0E1116" cx="50" cy="50" r="50"></circle>
                <g id="sass-lang-ar21" transform="translate(17.000000, 25.000000)" fill="#FFFFFF" fill-rule="nonzero">
                    <path d="M57.4236821,28.7122725 C55.091225,28.7255856 53.0720698,29.2856238 51.3777545,30.1199121 C50.7520383,28.8817927 50.126322,27.8007681 50.0224798,26.993106 C49.9053244,26.0549755 49.7615428,25.4816241 49.9053244,24.3606602 C50.049106,23.2396962 50.7005609,21.6501107 50.7005609,21.5205298 C50.6872478,21.4033744 50.5585544,20.8300231 49.2148177,20.81671 C47.871081,20.8033968 46.7119528,21.0776469 46.5823718,21.4379885 C46.349889,22.0887325 46.1627617,22.7547988 46.0223336,23.431405 C45.7880228,24.6562112 43.3384104,28.9962855 41.9440839,31.2754901 C41.4878879,30.3897245 41.09737,29.6069135 41.0192664,28.9820848 C40.902111,28.0439543 40.7583294,27.470603 40.902111,26.349639 C41.0458926,25.228675 41.6973475,23.6390895 41.6973475,23.5095086 C41.6840344,23.3923532 41.555341,22.8190019 40.2116043,22.8056888 C38.8678676,22.7923757 37.7087394,23.0666258 37.5791585,23.4269673 C37.4495775,23.7873088 37.3057959,24.6127217 37.0200078,25.4203838 C36.7466452,26.2191705 33.4893707,33.473041 32.6417693,35.3608402 C32.2121995,36.3247095 31.8429826,37.0942073 31.5589696,37.6151937 C31.2749565,38.1361801 31.5456564,37.6542455 31.5199178,37.7066104 L31.1560261,38.3971171 L31.1560261,38.4104302 C30.9731927,38.7361577 30.7779337,39.0494596 30.6856295,39.0494596 C30.620839,39.0494596 30.4903705,38.1761195 30.7122557,36.9779395 C31.1941903,34.4635365 32.3666316,30.5414939 32.3542061,30.3977123 C32.3542061,30.3329219 32.5760913,29.6433027 31.5997964,29.2900615 C30.6483527,28.9385954 30.3101997,29.5243722 30.2329837,29.5243722 C30.1557676,29.5243722 30.0909772,29.7329443 30.0909772,29.7329443 C30.0909772,29.7329443 31.1471506,25.315654 28.0709344,25.315654 C26.1423084,25.315654 23.4841238,27.4138003 22.1687884,29.3291133 L15.5237708,32.9644802 L15.3817643,32.808273 C11.6540932,28.8338655 4.76233926,26.0185863 5.04901492,20.6773661 C5.15285719,18.7363144 5.83005078,13.6152043 18.2875727,7.41306957 C28.4898536,2.33189878 36.6596662,3.72533775 38.0797314,6.82729267 C40.0997742,11.256121 33.714806,19.4924992 23.1086941,20.6782536 C19.0703837,21.1344495 16.9456111,19.5706027 16.4113116,18.9848259 C15.8521609,18.3635473 15.7722823,18.3457965 15.5645977,18.4638394 C15.2255572,18.6466728 15.4341292,19.1933979 15.5645977,19.5200129 C15.8770121,20.3409881 17.1799219,21.8009926 19.3952236,22.5287761 C21.3362752,23.1678054 26.0784054,23.5192715 31.8119187,21.3039698 C38.2315009,18.7877918 43.2478812,11.8916002 41.7763387,6.11814761 C40.2763948,0.241740315 30.5311974,-1.68599819 21.3185244,1.58458947 C15.8335226,3.53984174 9.89232479,6.58765667 5.61792854,10.5869153 C0.536757755,15.329933 -0.271791868,19.4729733 0.0672486984,21.1930272 C1.25300314,27.3303715 9.7094914,31.3305177 13.0963469,34.2878034 L12.6259503,34.5487404 C10.9325225,35.3830287 4.48276392,38.7574587 2.86655222,42.3271476 C1.04265598,46.365458 3.15322788,49.2721539 4.55997997,49.6626718 C8.91159226,50.874165 13.3679344,48.6988026 15.778495,45.114913 C18.1748551,41.531911 17.8890669,36.88031 16.7814161,34.7573125 L16.7423643,34.6792089 L18.0710128,33.8981731 C18.8793189,33.4233848 19.6959849,32.9629746 20.5206253,32.5171597 C20.1034811,33.6505492 19.8043799,34.9933983 19.6472852,36.945988 C19.4644518,39.2393933 20.4016948,42.2091046 21.6407017,43.3824335 C22.1883143,43.8909944 22.8388817,43.9034199 23.2436003,43.9034199 C24.6769786,43.9034199 25.329321,42.7176655 26.0446789,41.2976003 C26.9304445,39.5642332 27.7132555,37.5583911 27.7132555,37.5583911 C27.7132555,37.5583911 26.7369607,42.9919156 29.4066832,42.9919156 C30.3829781,42.9919156 31.361048,41.7280575 31.8030433,41.0766026 L31.8030433,41.0899157 C31.8030433,41.0899157 31.8296695,41.050864 31.8811468,40.9594473 C31.9849891,40.8032401 32.037354,40.7109358 32.037354,40.7109358 L32.037354,40.6843096 C32.4278719,40.007116 33.301212,38.4654578 34.6041219,35.888927 C36.285124,32.5784 37.9004482,28.4362473 37.9004482,28.4362473 C37.9004482,28.4362473 38.0566554,29.4524814 38.5394775,31.1201705 C38.8261532,32.110666 39.4518694,33.1916906 39.9329165,34.2469766 L39.3072003,35.1078911 L39.3205134,35.1212042 C39.0080991,35.5383484 38.6548578,35.9821187 38.2909661,36.424114 C36.9623176,38.012812 35.3727322,39.8251702 35.1641601,40.3470441 C34.9156487,40.9683227 34.9689011,41.4156432 35.4508357,41.7804224 C35.8023019,42.0413594 36.4271306,42.0928368 37.0927861,42.0413594 C38.2909661,41.9632558 39.1341298,41.6632671 39.5423986,41.4822088 C40.2945364,41.2141401 41.0050696,40.8412446 41.6529705,40.3745579 C42.9558803,39.4106886 43.7511168,38.0421008 43.6730132,36.2182046 C43.6339614,35.2152835 43.3091215,34.2247881 42.9044029,33.2866575 L43.2558691,32.7656711 C45.3149636,29.7569079 46.9036616,26.4463809 46.9036616,26.4463809 C46.9036616,26.4463809 47.0598687,27.4626151 47.5426909,29.1303042 C47.7912023,29.977018 48.2855625,30.902723 48.7284453,31.8142274 C46.7998193,33.3904997 45.5883262,35.2152835 45.171182,36.4134635 C44.4025717,38.6287653 45.0025493,39.6316863 46.1350513,39.8748725 C46.6436121,39.9787147 47.3731706,39.744404 47.9190082,39.5109808 C48.5962018,39.2890956 49.417177,38.9118907 50.1733617,38.350965 C51.4762715,37.3870957 52.7268164,36.0451341 52.6620259,34.2327759 C52.6229742,33.3984876 52.401089,32.5784 52.1028753,31.7964766 C53.7448257,31.119283 55.8687107,30.7278775 58.565947,31.053605 C64.3642507,31.7307985 65.5109534,35.3537399 65.2890682,36.8652218 C65.067183,38.3767037 63.8556899,39.210992 63.4518588,39.4710414 C63.0480278,39.7195528 62.9175593,39.810082 62.9566111,39.9920278 C63.0098635,40.2653904 63.1909218,40.2529648 63.542388,40.2005999 C64.0243226,40.1224963 66.5910905,38.9624806 66.6958203,36.1747151 C66.8520274,32.5917131 63.4509713,28.6838712 57.4183568,28.7220354 L57.4236821,28.7122725 Z M12.7067165,43.7871521 C10.7914036,45.8852984 8.09416723,46.6805349 6.94657704,46.0024538 C5.7084577,45.2862084 6.19216741,42.1975666 8.54947564,39.9698393 C9.98285395,38.6145646 11.845802,37.3640197 13.0706082,36.5954094 L14.2563627,35.879164 C14.3344662,35.8259116 14.3868311,35.8010604 14.3868311,35.8010604 C14.4782478,35.747808 14.5820901,35.683905 14.6868199,35.618227 C15.56016,38.797398 14.7258717,41.586051 12.707604,43.7880396 L12.7067165,43.7871521 Z M26.7138846,34.2620648 C26.048229,35.890702 24.6423645,40.0736816 23.7956506,39.8384833 C23.0660921,39.6432243 22.6240968,36.4764789 23.6536441,33.3505604 C24.1746305,31.774288 25.2822814,29.8891515 25.9346238,29.1675809 C26.9907973,27.9960271 28.1357249,27.6037341 28.4232881,28.0865562 C28.7623287,28.7122725 27.1336914,33.2467181 26.7165472,34.2638398 L26.7138846,34.2620648 Z M38.2705527,39.7870059 C37.983877,39.9290124 37.7229401,40.0355173 37.6048971,39.9556387 C37.5134804,39.9023862 37.7220525,39.7071273 37.7220525,39.7071273 C37.7220525,39.7071273 39.1687439,38.1565936 39.7420953,37.4403482 L40.8754848,35.9936568 L40.8754848,36.1498639 C40.8754848,38.0261251 39.0773272,39.27667 38.2696652,39.7852308 L38.2705527,39.7870059 Z M47.1832369,37.7456622 C46.9746648,37.589455 47.0004035,37.1066329 47.7042233,35.5960385 C47.9775859,34.9969485 48.6033021,33.9931399 49.6834392,33.0425838 C49.8139077,33.4331017 49.8920113,33.8111941 49.8786982,34.1635477 C49.865385,36.5093179 48.197696,37.3817705 47.1805743,37.7465497 L47.1832369,37.7456622 Z" id="Shape"></path>
                </g>
            </g>
        </g>
    </g>
</svg>