<?xml version="1.0" encoding="UTF-8"?>
<svg width="100px" height="100px" viewBox="0 0 100 100" version="1.1" xmlns="http://www.w3.org/2000/svg" xmlns:xlink="http://www.w3.org/1999/xlink">
    <title>Strapi</title>
    <g id="DE" stroke="none" stroke-width="1" fill="none" fill-rule="evenodd">
        <g id="Artboard" transform="translate(-203.000000, -431.000000)">
            <g id="Strapi" transform="translate(203.000000, 431.000000)">
                <circle id="Oval" fill="#0E1116" cx="50" cy="50" r="50"></circle>
                <g id="SVG.logo.full.white" transform="translate(26.000000, 25.000000)" fill="#FFFFFF" fill-rule="nonzero" opacity="0.974562872">
                    <g id="Group">
                        <path d="M32.553763,34.0035737 L32.553763,17.7860645 C32.553763,17.208461 32.0933396,16.7402209 31.5253785,16.7402209 L15.6594057,16.7402209 L15.6594057,0 L47.9077857,0 C48.4757467,0 48.9361702,0.468240138 48.9361702,1.04584362 L48.9361702,34.0035737 L32.553763,34.0035737 Z" id="Combined-Shape-Copy"></path>
                        <path d="M15.6594057,0 L15.6594057,16.7402209 L0.514192273,16.7402209 C0.230211723,16.7402209 0,16.5061008 0,16.2172991 C0,16.0790439 0.0538374373,15.9464149 0.149737029,15.8484208 L15.6594057,0 Z" id="Rectangle-Copy-6" opacity="0.404989"></path>
                        <path d="M48.9361698,34.5264956 L48.9361698,50 L32.5537626,50 L48.0575222,34.1576173 C48.2578469,33.9529169 48.5834149,33.952127 48.7846979,34.1558529 C48.8816587,34.2539905 48.9361698,34.3873757 48.9361698,34.5264956 Z" id="Rectangle-Copy-7" opacity="0.404989" transform="translate(40.744966, 42.001787) rotate(180.000000) translate(-40.744966, -42.001787) "></path>
                        <path d="M15.6594057,16.7402209 L32.0395707,16.7402209 C32.3235513,16.7402209 32.553763,16.974341 32.553763,17.2631427 L32.553763,34.0035737 L16.6877903,34.0035737 C16.1198292,34.0035737 15.6594057,33.5353336 15.6594057,32.9577301 L15.6594057,16.7402209 Z" id="Rectangle-Copy-8" opacity="0.404989"></path>
                    </g>
                </g>
            </g>
        </g>
    </g>
</svg>