<?xml version="1.0" encoding="UTF-8"?>
<svg width="100px" height="100px" viewBox="0 0 100 100" version="1.1" xmlns="http://www.w3.org/2000/svg" xmlns:xlink="http://www.w3.org/1999/xlink">
    <title>Stylelint</title>
    <g id="DE" stroke="none" stroke-width="1" fill="none" fill-rule="evenodd">
        <g id="Artboard" transform="translate(-581.000000, -72.000000)">
            <g id="Stylelint" transform="translate(581.000000, 72.000000)">
                <circle id="Oval" fill="#0E1116" cx="50" cy="50" r="50"></circle>
                <g id="light" transform="translate(24.000000, 25.000000)" fill="#FFFFFF">
                    <path d="M26.3820673,49.8690108 C32.0770926,29.377907 31.9122848,29.2863471 36.0269863,14.6788819 L37.0158331,15.253878 C37.5542053,15.5651816 37.9936928,15.3088139 37.9936928,14.6862067 L37.9936928,7.72216129 C39.0850867,3.87298343 39.9420873,0.89911814 40.1911302,0.00366239568 L44.6500969,0.00366239568 L52.0572922,6.91094065 L47.1936307,11.1410077 L50.8743384,15.1440061 L26.6256166,49.8690108 C26.5065887,50.064949 26.3417809,50.0210002 26.3784049,49.8690108 L26.3820673,49.8690108 Z" id="Path"></path>
                    <path d="M29.0318106,5.70784367 C29.2515543,5.70784367 29.4291805,5.82870273 29.4291805,5.98252334 L29.4291805,9.55335913 C29.4291805,9.69985496 29.2643727,9.82437641 29.0446289,9.82437641 L23.056612,9.82437641 C22.8368683,9.82437641 22.6537485,9.70168616 22.6537485,9.54969674 L22.6537485,5.97886095 C22.6537485,5.82870273 22.8368683,5.70784367 23.056612,5.70784367 L29.0446289,5.70784367 L29.0318106,5.70784367 Z M36.422525,1.75245633 L29.8338752,5.57965982 C29.9107855,5.69868768 29.9565655,5.83602752 29.9565655,5.98252334 L29.9565655,9.55335913 C29.9565655,9.73647892 29.8833176,9.90128672 29.7551337,10.0386266 L36.4023819,13.902454 C36.8418694,14.1679777 37.2264209,13.9518963 37.2264209,13.4263426 L37.2264209,2.23406137 C37.2264209,1.70667639 36.8418694,1.49059504 36.4023819,1.75428753 L36.422525,1.75245633 Z M22.1153763,9.55335913 L22.1153763,5.98252334 C22.1153763,5.83602752 22.1611563,5.69868768 22.2362354,5.57965982 L15.6475855,1.75245633 C15.1952797,1.49059504 14.8235465,1.70667639 14.8235465,2.23223017 L14.8235465,13.420849 C14.8235465,13.9518963 15.1934485,14.1533281 15.6475855,13.8969604 L22.3039897,10.033133 C22.1849618,9.88663714 22.1135451,9.72182933 22.1135451,9.53870955 L22.1153763,9.55335913 Z" id="Shape"></path>
                    <path d="M25.4280132,49.8690108 L25.6733937,49.8690108 C19.9783684,29.377907 20.1431762,29.2863471 16.0303059,14.6788819 L15.0414591,15.253878 C14.5030869,15.5651816 14.0617682,15.3088139 14.0617682,14.6862067 L14.0617682,7.72216129 C12.9648807,3.87115223 12.1042177,0.897286942 11.84785,0 L7.39803928,0 L0,6.90910945 L4.86183027,11.1391765 L1.18112261,15.1421749 L25.426182,49.861686 L25.4280132,49.8690108 Z" id="Path"></path>
                    <ellipse id="Oval" cx="25.8473575" cy="15.4681282" rx="1.79823628" ry="1.80922347"></ellipse>
                    <ellipse id="Oval" cx="25.8473575" cy="26.2300779" rx="1.79823628" ry="1.80922347"></ellipse>
                    <ellipse id="Oval" cx="25.8473575" cy="36.9920276" rx="1.79823628" ry="1.80922347"></ellipse>
                </g>
            </g>
        </g>
    </g>
</svg>