<?xml version="1.0" encoding="UTF-8"?>
<svg width="100px" height="100px" viewBox="0 0 100 100" version="1.1" xmlns="http://www.w3.org/2000/svg" xmlns:xlink="http://www.w3.org/1999/xlink">
    <title>Typescript</title>
    <g id="DE" stroke="none" stroke-width="1" fill="none" fill-rule="evenodd">
        <g id="Artboard" transform="translate(-79.000000, -210.000000)">
            <g id="Typescript" transform="translate(79.000000, 210.000000)">
                <circle id="Oval" fill="#0E1116" cx="50" cy="50" r="50"></circle>
                <g id="typescriptlang-icon" transform="translate(25.000000, 25.000000)" fill="#FFFFFF" fill-rule="nonzero">
                    <path d="M0,25.0007812 L0,50 L50,50 L50,-8.65979423e-16 L0,-8.65979423e-16 L0,25.0007812 Z M40.2932721,23.008656 C41.5627637,23.3258336 42.5314834,23.8898784 43.4205181,24.8101622 C43.8814412,25.3023343 44.5634511,26.1991813 44.6189182,26.4132371 C44.6345427,26.4757351 42.4603919,27.936627 41.1424643,28.7545702 C41.0955908,28.7858192 40.9041905,28.5803569 40.6893535,28.2623981 C40.0464048,27.3249273 39.3722071,26.9210337 38.3402081,26.8499422 C36.8246305,26.7468204 35.8402862,27.5405456 35.8559108,28.8655042 C35.8559108,29.2545545 35.9105965,29.4842349 36.0699666,29.8029749 C36.4035499,30.4935783 37.0230618,30.9060654 38.966751,31.7482266 C42.5463267,33.287241 44.0775288,34.3028343 45.0290616,35.7481016 C46.0915284,37.3589888 46.3305834,39.9307834 45.608731,41.8432236 C44.8150058,43.9228462 42.8470985,45.335302 40.0776538,45.8040374 C39.2206494,45.9548139 37.1886816,45.9313771 36.2683979,45.7649761 C34.2606481,45.407956 32.3560201,44.4157995 31.1810568,43.1142777 C30.7201337,42.606481 29.824068,41.2807412 29.879535,41.1846505 C29.9029718,41.1534015 30.1099966,41.0260617 30.3404581,40.8909097 L32.1974313,39.8206306 L33.6348864,38.9870629 L33.9364395,39.4323615 C34.3567389,40.0753101 35.2778038,40.9557514 35.8332552,41.2494922 C37.4285179,42.0908722 39.6190744,41.9713446 40.6979469,41.0034061 C41.15887,40.5831068 41.3487079,40.1464017 41.3487079,39.503453 C41.3487079,38.9237836 41.2783976,38.6698853 40.9760632,38.2339614 C40.5870129,37.6792913 39.7932877,37.2105559 37.5386707,36.2340239 C34.9590638,35.1231212 33.848161,34.4325177 32.8325677,33.3372395 C32.2450861,32.7021031 31.6896347,31.6865098 31.4591732,30.8373176 C31.2685541,30.1310897 31.2208993,28.3608325 31.3716759,27.6467923 C31.9029093,25.1468704 33.7841005,23.4164557 36.4988594,22.9008468 C37.3800819,22.7344458 39.4284554,22.7977251 40.2924909,23.0117809 L40.2932721,23.008656 Z M28.5553576,25.0945283 L28.5709822,27.1413393 L22.063373,27.1413393 L22.063373,45.632949 L17.4603919,45.632949 L17.4603919,27.1413393 L10.9527827,27.1413393 L10.9527827,25.1335896 L11.0074685,23.071154 C11.0309053,23.039905 14.991719,23.0242805 19.7931315,23.0320927 L28.5311397,23.0555295 L28.5553576,25.0945283 Z" id="Shape"></path>
                </g>
            </g>
        </g>
    </g>
</svg>