<?xml version="1.0" encoding="UTF-8"?>
<svg width="100px" height="100px" viewBox="0 0 100 100" version="1.1" xmlns="http://www.w3.org/2000/svg" xmlns:xlink="http://www.w3.org/1999/xlink">
    <title>Webpack</title>
    <g id="DE" stroke="none" stroke-width="1" fill="none" fill-rule="evenodd">
        <g id="Artboard" transform="translate(-459.000000, -72.000000)">
            <g id="Webpack" transform="translate(459.000000, 72.000000)">
                <circle id="Oval" fill="#0E1116" cx="50" cy="50" r="50"></circle>
                <g id="js_webpack-icon" transform="translate(28.000000, 25.000000)" fill="#FFFFFF" fill-rule="nonzero">
                    <path d="M43.6150967,38.5359375 L23.3873986,50 L23.3873986,41.0734375 L35.9887711,34.1265625 L43.6150967,38.5359375 Z M45,37.28125 L45,13.3125 L37.6013724,17.596875 L37.6013724,33.00625 L45,37.28125 Z M1.38490331,38.5359375 L21.6094822,50 L21.6094822,41.0734375 L9.00031192,34.125 L1.38490331,38.5359375 Z M0,37.28125 L0,13.3125 L7.39862757,17.596875 L7.39862757,33.00625 L0,37.28125 Z M0.867124142,11.75625 L21.6094822,0 L21.6094822,8.628125 L8.21272614,16.015625 L0.867124142,11.75625 Z M44.1297567,11.75625 L23.3873986,0 L23.3873986,8.628125 L36.7841547,16.0078125 L44.1297567,11.75625 Z" id="Shape"></path>
                    <path d="M21.2903037,39.375 L8.75,32.5477698 L8.75,19.0333712 L21.2903037,26.1983057 L21.2903037,39.375 Z M23.0831236,39.375 L35.625,32.5539948 L35.625,19.0302587 L23.0831236,26.1983057 L23.0831236,39.375 Z M9.5992305,17.4709051 L22.1867137,10.625 L34.7741969,17.4724613 L22.1867137,24.6622957 L9.5992305,17.4709051 Z" id="Shape"></path>
                </g>
            </g>
        </g>
    </g>
</svg>